<svg viewBox="-0.8 -0.8 17.60 17.60" fill="none" xmlns="http://www.w3.org/2000/svg"><g id="SVGRepo_bgCarrier" stroke-width="0"></g><g id="SVGRepo_tracerCarrier" stroke-linecap="round" stroke-linejoin="round" stroke="#6d28d9" stroke-width="1.056"> <path fill-rule="evenodd" clip-rule="evenodd" d="M0 8L6 2H16V14H6L0 8ZM6.79289 6.20711L8.58579 8L6.79289 9.79289L8.20711 11.2071L10 9.41421L11.7929 11.2071L13.2071 9.79289L11.4142 8L13.2071 6.20711L11.7929 4.79289L10 6.58579L8.20711 4.79289L6.79289 6.20711Z" fill="#8b5cf6"></path> </g><g id="SVGRepo_iconCarrier"> <path fill-rule="evenodd" clip-rule="evenodd" d="M0 8L6 2H16V14H6L0 8ZM6.79289 6.20711L8.58579 8L6.79289 9.79289L8.20711 11.2071L10 9.41421L11.7929 11.2071L13.2071 9.79289L11.4142 8L13.2071 6.20711L11.7929 4.79289L10 6.58579L8.20711 4.79289L6.79289 6.20711Z" fill="#8b5cf6"></path> </g></svg>