<svg viewBox="-2.4 -2.4 28.80 28.80" xmlns="http://www.w3.org/2000/svg" id="left-square" class="icon glyph" fill="#dbdbdb" stroke="#dbdbdb" stroke-width="0.504"><g id="SVGRepo_bgCarrier" stroke-width="0"></g><g id="SVGRepo_tracerCarrier" stroke-linecap="round" stroke-linejoin="round"></g><g id="SVGRepo_iconCarrier"><path d="M20,2H4A2,2,0,0,0,2,4V20a2,2,0,0,0,2,2H20a2,2,0,0,0,2-2V4A2,2,0,0,0,20,2ZM14.62,15.22a1,1,0,0,1,.16,1.4A1,1,0,0,1,14,17a1,1,0,0,1-.62-.22l-5-4a1,1,0,0,1,0-1.56l5-4a1,1,0,0,1,1.24,1.56L10.6,12Z" style="fill:#878787"></path></g></svg>